<?xml version="1.0" standalone="no"?>
<!DOCTYPE svg PUBLIC "-//W3C//DTD SVG 20010904//EN"
 "http://www.w3.org/TR/2001/REC-SVG-20010904/DTD/svg10.dtd">
<svg version="1.0" xmlns="http://www.w3.org/2000/svg"
 width="825.000000pt" height="825.000000pt" viewBox="0 0 825.000000 825.000000"
 preserveAspectRatio="xMidYMid meet">
<metadata>
Created by potrace 1.14, written by Peter Selinger 2001-2017
</metadata>
<g transform="translate(0.000000,825.000000) scale(0.100000,-0.100000)"
fill="#000000" stroke="none">
<path d="M3254 7631 c-26 -16 -44 -52 -129 -252 -128 -307 -129 -310 -115
-353 6 -18 18 -41 28 -49 9 -9 358 -167 774 -351 822 -364 812 -361 863 -308
38 38 235 512 235 563 0 75 6 72 -810 434 -441 196 -767 335 -785 335 -16 0
-44 -9 -61 -19z"/>
<path d="M6868 5262 c-16 -9 -35 -32 -44 -51 -9 -18 -158 -376 -331 -795 -342
-828 -336 -808 -281 -863 35 -34 494 -235 540 -235 47 -1 80 21 101 64 39 83
639 1545 644 1569 5 29 -14 74 -43 101 -29 25 -501 228 -532 228 -15 0 -39 -8
-54 -18z"/>
<path d="M1378 4935 c-15 -8 -32 -24 -38 -35 -33 -61 -640 -1585 -640 -1606 0
-40 28 -82 68 -103 20 -10 140 -62 265 -116 251 -107 270 -110 319 -57 16 17
137 304 342 816 347 862 337 830 278 884 -33 29 -483 223 -532 228 -20 3 -47
-2 -62 -11z"/>
<path d="M3548 1985 c-35 -20 -36 -23 -152 -306 -105 -258 -114 -298 -73 -343
30 -35 1533 -686 1583 -686 65 0 84 31 200 318 102 251 106 266 95 301 -6 21
-19 45 -28 54 -27 24 -1523 669 -1563 673 -20 3 -47 -2 -62 -11z"/>
</g>
</svg>
